<?xml version="1.0" standalone="no"?>
<!DOCTYPE svg PUBLIC "-//W3C//DTD SVG 20010904//EN"
 "http://www.w3.org/TR/2001/REC-SVG-20010904/DTD/svg10.dtd">
<svg version="1.0" xmlns="http://www.w3.org/2000/svg"
 width="2000.000000pt" height="2000.000000pt" viewBox="0 0 2000.000000 2000.000000"
 preserveAspectRatio="xMidYMid meet">
<metadata>
Created by potrace 1.11, written by Peter Selinger 2001-2013
</metadata>
<g transform="translate(0.000000,2000.000000) scale(0.100000,-0.100000)"
fill="#000000" stroke="none">
<path d="M5293 19780 c-13 -5 -48 -28 -78 -50 -134 -99 -425 -259 -675 -372
-112 -50 -277 -121 -290 -124 -3 0 -14 -4 -25 -9 -11 -4 -42 -17 -70 -27 -27
-10 -59 -23 -70 -27 -32 -14 -105 -41 -180 -66 -38 -13 -162 -55 -275 -93
-113 -38 -234 -78 -270 -90 -766 -239 -1002 -320 -1177 -403 -137 -64 -190
-104 -248 -184 -11 -15 -30 -39 -41 -54 -81 -99 -450 -678 -556 -872 -13 -23
-28 -49 -33 -58 -16 -26 -150 -261 -179 -316 -15 -27 -37 -66 -48 -85 -11 -19
-41 -73 -66 -120 -24 -47 -48 -89 -52 -95 -4 -5 -33 -59 -65 -120 -32 -60 -61
-114 -65 -120 -4 -5 -38 -68 -75 -140 -37 -71 -87 -166 -110 -210 -131 -248
-215 -407 -345 -660 -94 -183 -204 -395 -262 -506 l-40 -75 45 -71 c25 -39 53
-80 61 -90 8 -10 44 -54 79 -98 129 -161 344 -362 521 -486 27 -19 67 -47 90
-63 142 -100 417 -249 621 -336 55 -23 114 -48 130 -55 92 -40 391 -135 475
-151 14 -3 39 -9 55 -14 29 -9 165 -35 235 -46 19 -3 45 -7 56 -9 126 -20 131
-20 169 21 38 41 233 299 324 431 215 308 393 512 486 554 69 32 96 26 131
-28 61 -94 124 -312 174 -603 6 -30 12 -64 14 -75 2 -11 7 -45 11 -75 4 -30 9
-62 10 -70 1 -8 6 -40 10 -70 3 -30 8 -66 10 -80 2 -14 6 -54 10 -90 3 -36 7
-78 9 -95 2 -16 7 -73 11 -125 3 -52 8 -106 10 -120 2 -14 7 -81 10 -150 4
-69 8 -147 10 -173 22 -292 22 -1037 0 -1382 -1 -22 -5 -85 -9 -140 -3 -55 -8
-122 -11 -150 -3 -27 -7 -81 -10 -120 -7 -90 -15 -188 -20 -245 -3 -25 -7 -72
-10 -105 -3 -33 -7 -76 -10 -95 -4 -32 -9 -78 -20 -205 -7 -78 -15 -156 -20
-200 -3 -22 -7 -60 -10 -85 -2 -25 -6 -67 -9 -95 -4 -27 -9 -70 -11 -95 -3
-25 -8 -61 -10 -80 -3 -19 -7 -60 -10 -90 -2 -30 -7 -71 -9 -90 -2 -19 -7 -64
-11 -100 -4 -36 -9 -72 -10 -80 -2 -8 -6 -44 -9 -80 -4 -36 -9 -81 -11 -100
-5 -40 -12 -103 -20 -175 -3 -27 -10 -81 -15 -120 -5 -38 -12 -95 -15 -125 -3
-30 -8 -71 -10 -90 -4 -33 -9 -75 -21 -180 -2 -25 -6 -61 -9 -80 -2 -19 -7
-60 -10 -90 -3 -30 -8 -71 -10 -90 -2 -19 -7 -64 -10 -100 -4 -36 -8 -76 -10
-90 -2 -14 -6 -54 -10 -90 -3 -36 -8 -81 -10 -100 -7 -60 -14 -132 -20 -210
-4 -41 -8 -86 -10 -100 -4 -25 -14 -177 -21 -285 -7 -139 -7 -226 2 -234 7 -7
70 -31 94 -36 3 -1 43 -13 90 -28 127 -39 396 -100 540 -122 19 -3 46 -7 60
-10 14 -3 39 -7 55 -9 17 -2 49 -7 73 -11 52 -8 73 -11 137 -19 28 -4 66 -9
85 -11 19 -3 60 -7 90 -10 30 -3 69 -7 85 -10 30 -5 78 -9 205 -20 36 -3 91
-8 123 -10 32 -3 86 -8 120 -10 34 -2 100 -7 147 -10 47 -3 132 -8 190 -10 58
-3 148 -7 200 -10 355 -18 830 -26 830 -14 0 5 9 28 19 52 11 23 62 141 114
262 52 121 114 260 136 308 23 49 41 90 41 91 0 15 322 667 430 871 61 117
140 261 157 290 7 11 16 29 22 41 5 11 30 55 55 98 25 43 46 79 46 82 0 10
289 489 418 694 118 186 286 439 405 610 89 127 338 472 347 480 3 3 46 58 95
124 l90 119 0 676 c0 669 0 676 20 676 26 -1 206 -16 226 -20 9 -2 54 -6 100
-10 46 -3 102 -8 124 -10 22 -3 72 -7 110 -10 39 -3 88 -8 110 -10 22 -3 76
-7 120 -10 44 -3 109 -8 145 -11 36 -3 94 -7 129 -9 34 -2 91 -7 125 -9 67 -6
194 -14 296 -21 137 -8 267 -16 325 -20 54 -4 213 -12 400 -20 76 -4 402 -15
531 -19 l81 -3 2 171 c1 163 3 237 17 546 8 199 17 339 29 470 2 25 7 74 10
110 3 36 7 81 10 100 2 19 7 60 10 90 4 30 8 66 10 80 2 14 7 50 10 80 4 30 9
62 10 70 2 8 6 38 9 65 6 39 44 239 71 369 27 125 100 313 137 353 72 77 221
-41 462 -362 62 -82 143 -195 181 -250 38 -55 72 -102 75 -105 4 -3 21 -26 38
-52 40 -58 170 -218 191 -235 21 -17 104 -8 286 28 610 123 1242 425 1710 818
176 148 372 360 485 525 l33 49 -83 161 c-46 89 -95 184 -110 211 -15 28 -71
136 -125 240 -54 105 -115 222 -135 260 -21 39 -72 138 -115 220 -43 83 -90
173 -105 200 -25 46 -54 100 -163 305 -22 41 -52 98 -67 125 -15 28 -44 82
-65 120 -129 237 -241 439 -310 555 -18 30 -44 75 -57 100 -207 372 -618 988
-683 1024 -10 6 -25 17 -33 24 -25 22 -213 108 -342 155 -135 50 -298 103
-625 203 -115 35 -268 83 -340 106 -71 24 -132 43 -135 43 -62 9 -845 294
-916 334 -11 6 -53 24 -94 42 -219 92 -457 223 -678 372 l-132 90 -65 -6 c-94
-7 -124 -31 -227 -180 -383 -550 -663 -831 -1028 -1029 -126 -69 -381 -166
-482 -183 -18 -3 -51 -10 -73 -15 -22 -5 -55 -11 -72 -14 -18 -4 -45 -8 -60
-11 -91 -15 -267 -28 -402 -28 -118 -1 -359 11 -371 18 -3 1 -27 5 -55 9 -27
3 -60 8 -71 10 -12 2 -37 7 -55 10 -87 14 -295 75 -366 107 -24 10 -45 19 -48
19 -20 0 -305 154 -344 186 -9 7 -54 41 -101 75 -164 121 -468 447 -611 655
-18 27 -38 54 -44 60 -5 6 -50 70 -100 143 -73 106 -98 135 -131 151 -43 21
-131 26 -171 10z"/>
<path d="M9079 11918 c-1 -2 -2 -292 -3 -646 -1 -416 -5 -645 -11 -650 -15
-10 -185 -226 -305 -387 -58 -77 -107 -142 -110 -145 -16 -15 -301 -421 -424
-604 -128 -190 -426 -661 -426 -671 0 -3 -15 -28 -34 -57 -41 -65 -286 -494
-286 -502 0 -3 -15 -31 -34 -63 -66 -115 -416 -801 -416 -817 0 -2 -27 -62
-60 -132 -34 -71 -65 -138 -70 -149 -5 -11 -25 -56 -45 -100 -20 -44 -46 -102
-57 -130 -11 -27 -29 -68 -39 -90 -98 -218 -462 -1151 -485 -1245 -2 -8 -31
-94 -64 -190 -125 -358 -304 -925 -455 -1440 -36 -121 -50 -171 -81 -275 -8
-27 -16 -57 -18 -66 -3 -9 -25 -86 -51 -170 -25 -85 -48 -162 -50 -172 -20
-91 -254 -806 -300 -912 -7 -16 -25 -61 -40 -100 -75 -189 -204 -424 -291
-531 -19 -23 -34 -46 -34 -52 0 -21 196 -129 365 -202 101 -43 318 -112 565
-180 121 -33 503 -115 630 -135 19 -3 46 -7 60 -10 32 -6 75 -13 125 -20 22
-3 65 -10 95 -15 63 -11 89 -15 235 -36 17 -2 41 -6 55 -9 14 -2 46 -7 73 -10
26 -3 68 -7 95 -10 26 -3 61 -8 79 -10 35 -5 32 -12 49 100 8 59 14 94 24 155
5 30 12 71 15 90 3 19 8 46 10 60 10 50 15 75 20 100 2 14 14 72 26 130 11 58
23 114 25 125 5 25 89 405 100 450 3 11 7 30 9 41 3 12 21 88 41 170 20 82 37
156 39 164 2 8 8 35 15 60 7 25 13 52 15 60 2 8 8 35 15 60 7 25 14 52 15 60
32 143 274 1036 412 1520 52 184 99 349 103 365 4 17 49 170 100 340 50 171
93 317 95 325 2 8 13 44 24 80 11 36 31 103 45 150 13 47 66 220 116 385 50
165 93 305 94 310 5 22 281 912 301 970 7 22 22 69 33 105 30 95 133 422 214
675 67 213 109 341 243 755 35 107 66 205 70 218 4 13 9 22 11 19 2 -2 -14
-73 -37 -158 -49 -187 -238 -924 -245 -959 -3 -14 -7 -33 -10 -42 -3 -9 -7
-25 -9 -35 -2 -10 -24 -100 -50 -201 -26 -101 -48 -193 -50 -204 -2 -11 -7
-28 -10 -38 -3 -10 -8 -27 -10 -37 -2 -10 -18 -74 -35 -143 -33 -129 -37 -148
-46 -189 -3 -14 -20 -86 -39 -160 -48 -193 -65 -263 -69 -286 -2 -11 -9 -40
-16 -65 -7 -25 -14 -54 -16 -65 -2 -11 -13 -58 -24 -105 -62 -258 -122 -511
-149 -630 -17 -74 -42 -182 -56 -240 -13 -58 -34 -148 -45 -200 -11 -52 -25
-111 -30 -130 -13 -49 -88 -388 -95 -430 -3 -19 -10 -48 -15 -65 -5 -16 -11
-41 -14 -55 -8 -51 -37 -187 -51 -240 -7 -30 -16 -68 -18 -85 -4 -24 -67 -324
-84 -400 -2 -11 -6 -31 -9 -45 -7 -38 -35 -172 -40 -195 -4 -18 -15 -70 -29
-145 -3 -14 -10 -50 -16 -80 -7 -30 -13 -62 -14 -70 -1 -8 -7 -40 -13 -70 -6
-30 -14 -66 -16 -80 -6 -31 -53 -284 -61 -325 -24 -131 -46 -253 -89 -505 -30
-180 -38 -231 -51 -327 -2 -12 -6 -34 -9 -50 -3 -15 -8 -48 -11 -73 -4 -25 -8
-56 -10 -70 -2 -14 -7 -49 -10 -79 -4 -30 -8 -61 -10 -70 -1 -9 -6 -43 -9 -76
-4 -33 -9 -71 -11 -85 -2 -14 -9 -74 -15 -135 -6 -60 -13 -128 -15 -150 -9
-85 -16 -257 -17 -405 -1 -261 0 -266 20 -266 9 -1 31 -4 47 -7 17 -3 55 -8
85 -12 30 -4 66 -8 80 -10 14 -2 49 -7 79 -10 30 -4 61 -8 70 -10 9 -1 43 -6
76 -9 33 -4 71 -9 85 -11 14 -2 48 -6 75 -10 28 -3 66 -7 85 -10 19 -2 78 -9
130 -15 52 -6 106 -13 120 -16 14 -2 56 -6 95 -10 38 -4 73 -8 76 -10 3 -2 35
-6 70 -9 35 -3 75 -8 89 -10 14 -2 50 -6 80 -10 63 -7 114 -13 168 -20 70 -9
107 -13 177 -20 39 -3 77 -8 85 -10 8 -2 47 -7 85 -11 39 -3 77 -8 85 -9 8 -1
44 -6 80 -10 36 -3 76 -8 90 -10 14 -2 54 -6 90 -10 36 -4 76 -8 90 -10 24 -4
89 -11 179 -20 63 -6 152 -16 181 -21 14 -2 64 -6 111 -10 84 -5 86 -5 93 18
43 155 103 413 112 478 2 19 6 46 9 60 3 14 7 43 10 65 2 22 7 49 9 61 2 12 7
45 11 75 3 30 8 61 10 69 2 8 7 39 10 69 4 30 8 62 10 71 2 9 6 41 10 70 4 29
8 60 10 69 1 9 6 37 9 64 3 26 9 68 12 95 3 26 8 54 9 62 2 9 6 43 10 75 4 33
9 68 11 79 2 10 6 44 9 75 4 31 8 63 10 71 2 8 7 40 10 70 3 30 8 66 10 80 4
24 8 51 20 150 5 44 12 99 20 150 2 14 6 50 10 80 4 30 8 66 10 80 4 23 8 56
20 148 3 20 7 60 10 87 3 28 8 61 10 75 2 14 16 115 30 225 14 110 27 217 30
238 6 45 12 93 20 166 4 30 8 63 11 74 2 11 6 47 9 80 3 33 7 63 9 66 2 3 7
39 10 80 4 41 8 77 10 80 2 3 7 35 10 71 4 36 9 79 11 95 3 17 7 51 9 76 3 25
7 57 10 70 3 13 8 49 11 80 3 31 7 65 9 75 2 11 7 46 10 79 4 33 9 71 11 85 2
14 6 52 10 85 4 32 8 66 10 75 1 8 6 40 9 71 4 31 8 65 10 75 2 11 7 53 11 94
4 41 8 77 10 80 2 3 6 34 10 70 3 36 8 72 10 80 2 8 7 43 10 77 3 34 7 70 9
80 2 10 7 45 11 78 4 33 9 71 11 85 2 14 6 46 9 72 2 26 7 60 9 75 8 51 16
107 22 158 3 28 7 61 9 75 2 14 7 48 10 75 3 28 8 61 10 75 2 14 7 50 10 80 4
30 8 66 10 80 2 14 9 63 15 110 6 47 13 100 16 118 2 17 6 47 8 65 15 109 18
135 22 157 2 14 6 50 9 80 4 30 8 62 10 70 2 8 7 38 11 65 3 28 8 57 9 65 2 9
7 43 11 75 4 33 9 62 9 65 1 3 5 31 9 63 5 31 13 60 19 64 5 3 7 2 4 -4 -4 -5
-9 -66 -12 -134 -6 -136 -13 -288 -20 -417 -3 -46 -7 -138 -10 -205 -3 -67 -8
-160 -11 -207 -2 -47 -6 -125 -9 -175 -2 -49 -7 -126 -9 -170 -3 -44 -8 -129
-11 -190 -3 -60 -7 -144 -10 -185 -3 -41 -7 -115 -10 -165 -12 -240 -16 -315
-20 -369 -3 -33 -7 -109 -10 -170 -4 -61 -8 -140 -10 -176 -3 -36 -7 -110 -10
-165 -3 -55 -7 -127 -10 -160 -4 -54 -9 -132 -20 -345 -7 -125 -15 -256 -20
-335 -3 -44 -7 -123 -10 -175 -3 -52 -8 -120 -10 -150 -3 -30 -7 -102 -10
-160 -3 -58 -7 -134 -10 -170 -2 -36 -7 -110 -10 -165 -3 -55 -8 -127 -10
-160 -2 -33 -7 -100 -10 -150 -3 -49 -7 -126 -10 -170 -7 -104 -14 -219 -20
-325 -10 -164 -14 -236 -30 -475 -3 -44 -8 -114 -10 -155 -10 -182 -16 -269
-20 -330 -2 -36 -7 -114 -11 -175 -3 -60 -6 -114 -7 -120 -2 -9 73 -25 183
-39 25 -3 56 -8 70 -10 28 -5 92 -12 190 -21 36 -4 76 -9 90 -11 108 -18 839
-25 1030 -10 199 15 447 43 540 61 8 2 37 6 64 9 62 9 65 11 61 39 -2 12 -6
74 -10 137 -3 63 -7 142 -10 175 -2 33 -6 103 -10 155 -9 156 -14 241 -20 320
-3 41 -8 120 -10 175 -3 55 -7 127 -10 160 -5 62 -11 165 -20 320 -3 50 -7
119 -10 155 -3 36 -7 105 -10 154 -3 49 -7 121 -10 160 -10 158 -17 266 -20
351 -3 50 -7 117 -9 150 -3 33 -8 105 -11 160 -3 55 -8 129 -10 165 -7 93 -20
310 -30 510 -2 41 -6 111 -9 155 -3 44 -8 125 -11 180 -4 55 -8 127 -10 160
-2 33 -6 112 -10 175 -3 63 -8 142 -10 175 -3 33 -7 110 -10 170 -3 61 -8 146
-11 190 -3 44 -7 121 -9 170 -2 50 -7 124 -10 165 -6 86 -13 214 -20 350 -9
201 -16 337 -20 400 -4 59 -9 144 -20 375 -2 44 -6 132 -10 195 -12 256 -14
327 -5 275 5 -27 12 -72 15 -100 3 -27 8 -61 10 -75 2 -14 7 -45 10 -70 3 -25
8 -56 10 -70 2 -14 7 -50 10 -80 3 -30 8 -66 10 -80 4 -25 11 -72 20 -145 18
-144 37 -294 40 -315 3 -14 7 -50 10 -80 3 -30 8 -66 10 -80 3 -14 7 -47 11
-75 3 -27 7 -61 10 -75 2 -14 6 -50 9 -80 4 -30 8 -62 10 -70 2 -8 7 -46 11
-85 3 -38 8 -73 10 -76 1 -3 6 -37 10 -75 3 -38 8 -76 9 -85 2 -9 6 -40 10
-70 3 -30 8 -65 10 -79 2 -14 6 -50 10 -80 3 -30 8 -66 10 -80 3 -14 7 -45 10
-70 5 -41 28 -218 40 -312 3 -21 7 -57 10 -80 3 -24 8 -54 10 -68 3 -14 7 -47
10 -75 5 -50 14 -118 20 -165 2 -14 9 -65 15 -115 6 -49 13 -105 16 -122 2
-18 6 -48 8 -65 3 -18 7 -53 10 -78 10 -78 47 -364 51 -390 13 -91 22 -157 30
-236 3 -28 7 -60 9 -71 3 -11 7 -44 11 -74 3 -30 8 -65 10 -79 5 -30 14 -101
20 -150 7 -59 26 -204 30 -230 11 -77 15 -110 21 -155 3 -27 7 -61 9 -75 2
-14 7 -47 10 -75 4 -27 8 -61 10 -75 2 -14 6 -45 10 -70 3 -25 8 -61 11 -80 3
-19 7 -51 9 -70 3 -19 9 -66 15 -105 5 -38 12 -88 15 -110 7 -62 26 -197 31
-226 2 -15 6 -47 9 -70 3 -24 8 -55 10 -69 2 -14 9 -61 15 -106 6 -44 13 -91
15 -105 3 -13 7 -46 10 -74 3 -27 8 -57 10 -65 2 -8 7 -37 10 -65 3 -27 7 -57
9 -65 1 -8 6 -37 10 -65 4 -27 10 -61 12 -75 2 -14 7 -41 9 -60 3 -19 10 -55
15 -80 12 -60 21 -116 27 -165 7 -58 38 -184 58 -229 l16 -38 97 7 c53 4 103
8 112 10 8 1 52 6 97 9 45 4 90 8 100 10 10 2 50 7 88 10 77 7 142 15 194 22
18 2 63 7 100 10 36 3 77 7 91 9 14 3 52 7 85 10 33 3 76 7 95 10 42 6 91 12
185 21 39 3 77 8 85 9 8 2 44 6 80 10 36 3 76 8 90 10 31 5 109 13 175 20 28
3 59 7 70 9 11 2 54 7 95 11 41 3 82 8 90 10 8 2 44 7 80 10 36 3 72 8 80 10
8 2 44 6 80 10 36 3 76 8 90 10 24 4 54 8 153 20 39 5 89 12 147 20 52 8 109
16 141 20 19 3 44 7 56 9 11 3 42 8 67 11 25 4 46 10 47 14 0 3 3 22 5 41 8
54 8 235 1 340 -4 52 -9 131 -12 175 -3 44 -8 98 -10 120 -2 22 -7 67 -10 100
-13 136 -16 163 -25 230 -5 39 -12 88 -14 110 -7 49 -44 306 -58 395 -5 36
-11 74 -13 85 -6 40 -65 391 -70 415 -3 14 -12 66 -20 115 -9 50 -22 122 -30
162 -8 39 -18 89 -21 110 -9 57 -163 833 -174 873 -5 19 -12 53 -15 75 -4 22
-12 67 -20 100 -18 77 -73 332 -79 365 -8 43 -26 127 -70 325 -37 167 -34 154
-73 320 -19 83 -36 161 -39 175 -3 14 -11 52 -19 85 -7 33 -26 112 -40 175
-28 124 -27 120 -110 469 -30 129 -57 244 -59 255 -4 22 -62 263 -73 306 -3
14 -8 34 -10 44 -2 11 -11 47 -19 80 -9 34 -17 68 -19 76 -7 29 -77 319 -136
560 -34 135 -62 252 -64 260 -2 8 -38 152 -80 320 -83 330 -105 416 -119 478
-2 9 -28 107 -56 217 -29 110 -71 275 -95 368 -24 92 -39 165 -34 161 5 -3 9
-12 9 -19 0 -8 15 -61 34 -117 55 -165 239 -736 306 -948 34 -107 91 -287 126
-400 36 -113 69 -216 74 -230 4 -14 26 -83 49 -155 22 -71 59 -191 82 -265 24
-74 44 -140 45 -147 1 -7 13 -47 27 -90 25 -76 72 -230 124 -403 13 -47 27
-91 29 -98 2 -7 3 -13 3 -15 0 -1 5 -15 11 -32 12 -31 106 -336 120 -390 4
-16 28 -97 53 -180 25 -82 67 -222 93 -310 25 -88 75 -259 111 -380 58 -201
195 -680 228 -800 8 -27 37 -133 65 -235 28 -102 53 -193 55 -203 2 -9 6 -21
9 -25 3 -5 7 -20 10 -35 2 -14 23 -93 45 -174 107 -398 252 -967 287 -1133 3
-14 16 -70 29 -125 19 -80 55 -240 80 -355 32 -152 94 -470 100 -515 2 -11 8
-47 14 -80 6 -33 14 -79 17 -103 3 -24 7 -51 9 -60 2 -9 4 -25 4 -35 1 -16 7
-18 39 -13 20 3 56 8 80 11 23 3 61 7 85 10 44 6 111 15 137 20 8 2 44 6 80
10 36 4 67 8 70 10 3 2 25 6 50 9 25 3 54 8 65 10 11 2 54 9 95 16 527 83
1075 224 1380 355 104 44 262 128 306 162 l34 25 -34 42 c-198 246 -362 635
-607 1441 -45 149 -85 284 -89 300 -20 81 -333 1123 -375 1250 -12 39 -33 104
-45 145 -12 41 -24 82 -27 90 -3 8 -47 139 -98 290 -79 234 -236 672 -303 845
-130 339 -256 646 -347 850 -104 235 -200 445 -210 465 -7 14 -75 151 -151
305 -257 523 -555 1055 -858 1528 -56 87 -106 165 -111 175 -20 33 -159 238
-269 396 -61 87 -118 168 -126 180 -47 69 -321 434 -423 563 l-120 152 -1 638
c-1 631 -1 638 -21 637 -39 -3 -181 -15 -215 -19 -19 -2 -69 -7 -110 -10 -86
-7 -135 -11 -240 -20 -41 -3 -95 -8 -120 -10 -25 -2 -83 -7 -130 -10 -47 -3
-105 -8 -130 -10 -25 -2 -92 -7 -150 -10 -58 -3 -125 -7 -150 -10 -74 -7 -221
-16 -495 -30 -71 -4 -150 -8 -175 -10 -42 -3 -229 -12 -445 -20 -620 -24
-1491 -24 -1985 0 -47 2 -146 7 -220 10 -74 3 -164 8 -200 10 -36 2 -128 7
-205 11 -77 4 -156 8 -175 9 -19 2 -88 6 -152 10 -65 3 -137 8 -160 10 -24 2
-88 7 -143 10 -55 4 -116 8 -135 10 -19 2 -84 7 -144 10 -60 4 -116 8 -125 10
-9 1 -59 6 -111 9 -52 4 -111 9 -130 11 -19 2 -69 7 -110 10 -41 4 -91 8 -110
10 -19 2 -73 6 -120 10 -47 3 -93 8 -102 11 -10 3 -19 4 -19 2z"/>
</g>
</svg>
